<svg width="32" height="28" viewBox="0 0 32 28" fill="none" xmlns="http://www.w3.org/2000/svg">
<path d="M14.1344 1.82822C14.7934 0.122673 17.2066 0.122672 17.8656 1.82822L20.4451 8.50403C20.7429 9.2749 21.4842 9.78319 22.3106 9.78319H29.8135C31.8335 9.78319 32.58 12.4367 30.8562 13.4899L25.4165 16.8133C24.5916 17.3173 24.2452 18.3391 24.5936 19.2408L26.8047 24.9632C27.4938 26.7465 25.5278 28.3875 23.8965 27.3908L17.0427 23.2034C16.4026 22.8123 15.5974 22.8123 14.9573 23.2034L8.10354 27.3908C6.47215 28.3875 4.50621 26.7465 5.19526 24.9632L7.40635 19.2408C7.75476 18.3391 7.40838 17.3173 6.58348 16.8133L1.14377 13.4899C-0.579996 12.4367 0.16646 9.78319 2.18648 9.78319H9.68937C10.5158 9.78319 11.2571 9.2749 11.5549 8.50403L14.1344 1.82822Z" fill="#F7F6F3"/>
</svg>
